# xmcd
# 
# Track frame offsets:
#     150
#     19465
#     41529
#     59190
#     82118
#     108205
#     125492
#     141896
#     158201
#     175647
#     199171
# 
# Disc length: 3008
# 
# Revision: 1
# Processed by: cddbd v1.5.2PL0 Copyright (c) Steve Scherf et al.
# Submitted via: fre:ac v1.0.17
# 
DISCID=9c0bbe0b
DTITLE=Various Artist - Bangerland [CD 2)
DYEAR=2007
DGENRE=Hardstyle
TTITLE0=Bangbros - Hamburg City (Langenhagen Rmx)
TTITLE1=Bangbros - Bang Baby Bang (DJ Mystery Jump Rmx)
TTITLE2=Bangbros - Franky B. - Mr. Lonely (Bangbros Rmx)
TTITLE3=Bangbros - Until The Sunset
TTITLE4=Bangbros - Children Of The World
TTITLE5=Bangbros - Gude Laune
TTITLE6=Bangbros - Mental Madness Allstars - The Anthem (Bangbros Rmx)
TTITLE7=Bangbros - Alex M. Vs. Marc Van Damme - Rock The House (Bangbros Rmx)
TTITLE8=Bangbros - Yeah Yeah Yeah 2007 (Reloaded Mix)
TTITLE9=Bangbros - Bang Baby Bang (Lagerfeier Mix)
TTITLE10=Data-Track - Data-Track
EXTD=
EXTT0=
EXTT1=
EXTT2=
EXTT3=
EXTT4=
EXTT5=
EXTT6=
EXTT7=
EXTT8=
EXTT9=
EXTT10=
PLAYORDER=
